<?xml version="1.0" standalone="no"?>
<svg width="800" height="800" xmlns="http://www.w3.org/2000/svg" id="stage-svg" xmlns:xlink="http://www.w3.org/1999/xlink" preserveAspectRatio="none" viewBox="0 0 385 385"><g transform=""><g transform=""><defs><path fill="#E9AF8B" d="M191.5 95.8q0-39.7-28.05-67.75-16.2-16.2-36.3-23.05-14.7-5-31.4-5t-31.4 5q-20.1 6.85-36.3 23.05Q0 56.1 0 95.8q0 32.25 18.5 56.85l.05.05q.6.75 1.2 1.55l1 1.2L28 163.5q0 .05.05.05l.7.7q3.5 3.4 7.15 6.4v.05l-.05-.05q-5.81 7.718-10.6 17.75-.078.183-.2.35l-.3.7q-.06.17-.15.35-.117.253-.25.5l-2.6 6.15q-5.345 13.608-8.3 30.1-.05.2-.05.4-.15 2.45.15 4.85Q15.7 245.9 31 249.35q.2.05.45.1l.05-.05q.15.05.25.05.2.6.4 1.15.4.95 1.1 1.75 0 .05.05.1v19.45q-3.9.7-7.8 2.5-.6.267-1.2.55-.94.67 0 .8h143.25q1 0 0-.6-.775-.405-1.55-.75-3.9-1.8-7.8-2.5v-19.45q.05-.05.05-.1.7-.8 1.1-1.75.2-.55.4-1.15.1 0 .25-.05l.05.05q.25-.05.45-.1 15.3-3.45 17.45-17.55.3-2.4.15-4.85 0-.2-.05-.4-3.7-20.65-11.15-36.75-4.8-10.45-11.15-18.95h-.05q0-.1-.1-.2 3.65-3 7.15-6.4l.7-.7q.05 0 .05-.05l7.25-8.05 1-1.2q.6-.8 1.2-1.55l.05-.05q18.5-24.6 18.5-56.85z" id="SkiSki001__Symbol_10_0_Layer0_0_FILL"/><path fill="#D79C78" d="M-36.05 227.75h-.2l-3.9.15-1.3.1q-8.5.6-13.15 1.65-4.7 1-5.35 1.3-.15.05-.25.1 8-1.3 16.1-1.8.3-.05.65-.05l2-.1q.2-.05.35-.05h.3q15.4-.65 30.05 2l4.15.7q1.15.2 2.3.45 1.75.35 3.45.75l.3.1q.1 0 .2.05.15 0 .3.05-.4-.15-.8-.25-1.7-.6-3.45-1.05-.55-.15-1.05-.3-.15-.05-.25-.05-10.8-3-22-3.6-.4-.05-.8-.05-.55-.05-1.15-.05l-6.5-.05m3.4-52.2q3.05 1.2 6.25 0 1.6-1.65.35-3.6-.1-.15-.15-.25-3.05-1-6.9 0-.5.7-.6 1.4-.2 1.1.8 2.25.1.1.25.2M3.2 203.7q-1.25-1.15-2.25 0-.05.25 0 .55.25 1.6.15 3.25l.1.05q.7.3 1.05-.35l.1-.2q.15-.45.3-.85.25-.8.4-1.55.05-.15.05-.3l.1-.6m55.4 25.95q-4.65-1.05-13.15-1.65l-1.3-.1-3.9-.15h-.2l-6.5.05q-.6 0-1.15.05-.4 0-.8.05-11.2.6-22 3.6-.1 0-.25.05-.5.15-1.05.3-1.75.45-3.45 1.05-.4.1-.8.25.15-.05.3-.05.1-.05.2-.05l.3-.1q1.7-.4 3.45-.75 1.15-.25 2.3-.45l4.15-.7q14.65-2.65 30.05-2h.3q.15 0 .35.05l2 .1q.35 0 .65.05 8.1.5 16.1 1.8-.1-.05-.25-.1-.65-.3-5.35-1.3M29.55 173.1q-.2 1.1.8 2.25.1.1.25.2 3.05 1.2 6.25 0 1.6-1.65.35-3.6-.1-.15-.15-.25-3.05-1-6.9 0-.5.7-.6 1.4z" id="SkiSki001__hll_0_Layer0_0_FILL"/><path fill="#BB7E59" d="M-54 165.45q-.05.05-.05.1l-4.3 21.85q-.45 2.1-.85 4.05l-.1.6q-.2.8-.35 1.6-1.5 7.35-2.3 12.15-.75 4.4.45-.6.4-2.5 1.45-6.25.1-.6.25-1.25.7-3.15 1.3-5.65.65-3.05 1.15-5.1h.05l-.05-.05v-.05q.2-.9.35-1.55.2-.95.4-1.55v-.05q0-.15.05-.25.15-.75.2-.85l3.25-16.8.05-.05q0-.25-.1-.4-.1-.2-.3-.2-.2-.05-.3 0-.05 0-.05.05-.05 0-.1.05t-.1.2m81.8 53.1q5.828-.808 11.3-1.95-.15 0-.3.05-.95.05-1.9.15-.75.05-1.5.15-13.1 1.2-26.3 1.45-4.5.1-9 .1-17-.1-34.1-1.8-.65-.1-1.2-.15 5.808 1.176 11.85 2 11.28 1.525 23.45 1.85h.55v.1l1.4 12.2v-.4l.05.4 1.4-12.2v-.1h.05q.15 0 .35.05l5.2-.2q9.762-.455 18.7-1.7m30.1-53.2l-.05-.05q-.15-.05-.35 0-.2 0-.3.2-.1.15-.05.4l3.25 16.85q.1.2 1.05 4.3v.05q.45 2 1.1 4.95.55 2.4 1.2 5.4l.1.4q.25 1.2.5 2.25 1 3.35 1.35 5.75 1.05 4.3.3.1-.9-5.3-2.65-13.9-.4-2.15-.9-4.5L58.1 165.7v-.1q-.1-.2-.2-.25m2.25-34.1q-1.35 1.05-2.8 2.1l-1.55 1.15q-20.35 14.1-45.8 16l-1.1.05q-3.35.2-6.8.2h-.2q-3.45 0-6.8-.2l-1.1-.05q-25.45-1.9-45.8-16l-1.55-1.15q-1.45-1.05-2.8-2.1l-1.15-.9q10.019 8.81 21.45 14.1 17.928 7.84 37.75 7.85h.2q19.823-.01 37.75-7.85 11.45-5.3 21.45-14.05l-1.15.85z" id="SkiSki001__hdd_0_Layer0_0_FILL"/><filter id="SkiSki001__Filter_1" x="-20%" y="-20%" width="140%" height="140%" color-interpolation-filters="sRGB"><feColorMatrix in="SourceGraphic" values="1 0 0 0 0 0 1 0 0 0 0 0 1 0 0 0 0 0 0.75 0" result="result1"/></filter></defs><use xlink:href="#SkiSki001__Symbol_10_0_Layer0_0_FILL" xmlns:xlink="http://www.w3.org/1999/xlink" transform="translate(96.75 58)" id="SkiSki001__col1n"/><use xlink:href="#SkiSki001__hll_0_Layer0_0_FILL" xmlns:xlink="http://www.w3.org/1999/xlink" transform="matrix(1.00052 0 0 1 190.5 98.75)" id="SkiSki001__col1d"/><use filter="url(#SkiSki001__Filter_1)" xlink:href="#SkiSki001__hdd_0_Layer0_0_FILL" xmlns:xlink="http://www.w3.org/1999/xlink" transform="matrix(1.00052 0 0 1 190.5 98.75)" id="SkiSki001__col1s"/></g></g><g transform=""><g transform=""><defs><path fill="#000000" d="M125.7 0q-.2.05-.35.1Q62.1 12.35.85.2.6.1.35.1.2.05.1.05.05 0 0 0q0 .05.05.1v19.5q.35-.1.7-.15h.1q32.4-5.15 62 2.9 29.7-8.1 62.3-2.85.15 0 .3.05.15 0 .25.05V.05l.05-.05h-.05z" id="LegPan001__Symbol_1_0_Layer0_0_FILL"/></defs><use xlink:href="#LegPan001__Symbol_1_0_Layer0_0_FILL" xmlns:xlink="http://www.w3.org/1999/xlink" transform="translate(129.65 310.25)" id="LegPan001__col1n"/></g></g><g transform=""><g transform=""><defs><path fill="#000000" d="M146.9 7.7q-9-5.25-23.3-6.95-13.1-1.45-27.4 0-7 .8-14.2 2.45l-8.3 2.05-8.3-2.05Q58.2 1.55 51.2.75 36.9-.7 23.8.75 9.1 2.5 0 8h147.4l-.5-.3z" id="LegSho001__Symbol_2_0_Layer0_0_FILL"/></defs><use xlink:href="#LegSho001__Symbol_2_0_Layer0_0_FILL" xmlns:xlink="http://www.w3.org/1999/xlink" transform="translate(118.8 326)" id="LegSho001__col1n"/></g></g><g transform=""><g transform=""><defs><path fill="#FFF" d="M156.9 243l.05.05.15.4L174.95 287h32.6l20-43.75q-11.843 4.591-25.05 5.85l-10.2 7.8-12.45-8.1q-1.504-.193-3-.45-10.417-1.557-19.95-5.35z" id="ShiLon101__Layer18_0_FILL"/><path fill="#BBC6CC" d="M200 258.05l-2.45-1.6-5.4 3.1-5.95-3.1-.05-.05-1.95 1.2.35.1q-1.381.668-3.9 2.15l-6.35 4q-7.122 4.77-3.35 3.3 3.817-1.415 4.35-1.35.594.055.65.15l5.85-3.75q3.051-2.783 4-4l1.7.65q2.15.85 4.6 1.05 1.25 0 4.25-.8l.6-.2-.55.2 1.35-.4q1.091 1.242 3.75 3.6l5.95 3.5q.05-.046 1.25.45 1.2.49 3.95 1.35 2.75.914-3.8-3.8l-6.35-4.15q-1.703-.933-2.9-1.5l.4-.1z" id="ShiLon101__Layer18_1_FILL"/><path fill="#000000" d="M20.9 4.7q1.35-1.3 1-2.65L19.4.45 15.8 1.5l.55-.2-.6.2q-3 .8-4.25.8-2.45-.2-4.6-1.05L3.6 0 .05 2.25q-.3 1.2 1.15 2.35l5.5 4.2L4.35 18q4.65 6.1 6.1 7.45h.95q1.3-1.3 7.7-8.65l-2.45-6.3-.45-1.7 4.7-4.1z" id="ShiLon101__Symbol_541_0_Layer0_0_FILL"/><path fill="#252525" d="M4.8 16.3L4.35 18l6.95 8.05 7.8-9.25-.5-1.25L11.5 22l-6.7-5.7m11.85-5.8l-.45-1.7q-4.75.45-9.5 0l-.35 1.75q5.4 1.15 10.3-.05m4.25-5.8q1.35-1.3 1-2.65L19.4.45 15.8 1.5l.55-.2-.6.2q-3 .8-4.25.8-2.45-.2-4.6-1.05L3.6 0 .05 2.25q-.3 1.2 1.15 2.35l3.9-2.25 6.35 1.2 6-1L20.9 4.7z" id="ShiLon101__Symbol_503_0_Layer0_0_FILL"/><path fill="#00498A" d="M60.9 24.2q.05-.35.1-.65 0-.15.05-.35 0-.4.1-.85Q62.5 11.8 66.75 2.5L56.1 19.3l-.65 1.55-4.75-2.9q-.15.45-.75 1.25-.3.35-.55.7-.05 0-.1.05-3.65 4.45-7.75 8.6-2.35 2.3-4.85 4.55l-2.25 1.85q-.15.15-.3.25l-.6.75-.65-.75.05.1-.05.05-.05-.15-.3-.2v-.05q-3.05-2.6-5.75-5.2-5.05-4.8-9-9.65-.05-.1-.15-.15-.35-.45-.65-.85-.45-.55-.85-1.1l-4.4 2.75L0 0q4.55 11.2 5.9 22.45.1.65.15 1.35.05.25.05.5.5 5.35.5 12.15l-.05-1.4v30.6h.1v8.65q12.35.9 17.75.3 5.35-.65 6.6-1.7 1.65.8 9.05 1.6 6.95.7 18.9-.1l1.4-.1v-.7h-.05v-.2h-.2v-.05h.25v-35.3q.15-1.9.05-4.7 0-2.45.25-6.35.1-1.45.25-2.8M32.05 72.1l-.3-.1q-.05-.05-.05-.1.15.1.35.2m-1.3.5h-.05l-.05-.05h.05l.05.05m-11.4-.7l.05-.05v.05h-.05z" id="ShiLon101__Symbol_444_0_Layer0_0_FILL"/><path fill="#00284D" d="M66.45 3.15q.15-.3.3-.65L56.1 19.3l-.65 1.55-4.75-2.9q-.15.45-.75 1.25-.3.35-.55.7l6.75 3.85 4.8-9.6q-2.05 4.55-1.55 9.5-.35.25-.65.5-.7.45-1.3.9Q43.9 34.5 30.25 38.8q.3-.35.7-.7l.1-.1q1.65-1.45 2.5-2.05l-.65-.75.05.1-.05.05-.25.1q-1.1.8-1.95 1.55-7.05-2.9-13-6.35l-.7-.4q-4-2.35-7.45-4.95-1.05-.75-2-1.5-.1-5.1-1.35-9.8l5.55 9.55 5.9-3.6q-.35-.45-.65-.85-.45-.55-.85-1.1l-4.4 2.75L0 0l.9 2.2 5.75 72.1q12.35.9 17.75.3 5.35-.65 6.6-1.7 1.65.8 9.05 1.6 6.95.7 18.9-.1l1.4-.1 6.1-71.15M49 31.65q.5-.3 1.05-.55l8.9-4.05v19.8h-12.6l-1.2-7-.6.6-.25 8.6 14.65-.15v24.7l-9.35.2q-1.25.1-5.15 0-3.9-.1-8.45-.7-3.15-.55-3.95-1l-.3-.1-.05-.05q-.25-.15-.45-.35-.05 0-.1-.05-.05 0-.1-.05l-.6-.5q-.1-.1-.2-.15-.9-.9-1.45-1.9l-.3-.6q-.4-.95-.55-2l-.2-.4v-23.3l.1-.1q.05-.75 1.05-2.2 11.55-4.05 20.1-8.7M7.95 26.9l10.25 5.25q1.35.75 2.75 1.45 4.4 2.15 9.2 3.9-.9.8-1.55 1.55-1.15 1.25-1.6 2.4-.25.7-.25 1.35v24.15q.55 2.7 2.8 4.5l.15.15q.3.25.65.6-1.95 1.15-3.75 1.25-1.8.1-6.3.25-4.55.15-8.85-.05l-3.5-.2V26.9m22.8 45.7h-.05l-.05-.05h.05l.05.05z" id="ShiLon101__Symbol_412_0_Layer0_0_FILL"/><path fill="#000D19" d="M3.75 20.15Q3.6 20 3.4 19.9q-.55-.4-1.2-.4-.45 0-.8.15-.4.15-.75.5Q0 20.8 0 21.7t.65 1.55q.65.65 1.55.65t1.55-.65q.65-.65.65-1.55t-.65-1.55m.65-7.85q0-.9-.65-1.55T2.2 10.1q-.9 0-1.55.65T0 12.3q0 .9.65 1.55.15.15.35.3.5.35 1.2.35.25 0 .5-.05.55-.1 1.05-.6.65-.65.65-1.55M3.75.65q-.5-.5-1.1-.6Q2.45 0 2.2 0q-.15 0-.3.05-.15 0-.25.05-.55.1-1 .55Q0 1.3 0 2.2q0 .25.05.5.1.35.3.65.1.2.3.4.45.45 1 .6.1 0 .25.05h.3q.25 0 .5-.05.6-.15 1.05-.6.65-.65.65-1.55T3.75.65z" id="ShiLon101__Symbol_390_0_Layer0_0_FILL"/><path fill="#B39244" d="M256.7 234.6q-1.173-1.861-2.45-3.65-.83-1.191-1.7-2.35h-.05l-1.8 1.4h-.05q-.58.49-1.2.95-.756.575-1.55 1.15l-1.55 1.15q-.52.36-1.05.7-8.451 5.683-17.75 9.3l-.4.65q-1.116 1.995-2.05 4.05l-.2.4q-4.25 9.3-5.6 19.85-.1.45-.1.85-.05.2-.05.35-.05.3-.1.65-.15 1.35-.25 2.8-.25 3.9-.25 6.35.1 2.8-.05 4.7v40.05q20.25 3.9 41.9 0l-1.5-14.2h-.05l-5.3-21.3v.05l-.55-2.45q4.55-5.05 12.65-4.7l2.05.15q.15.047.3.05 2.153.43 4 1.35 1.646.82 3.05 2.05V284.8q-.006-.175-.05-.35-.276-1.54-.6-3.05-.01-.2-.05-.4-.036-.2-.1-.4-.198-1.106-.45-2.2-.062-.426-.15-.85-.068-.263-.15-.55-.137-.687-.3-1.4-.07-.3-.15-.6-.166-.751-.35-1.5-.33-1.357-.7-2.7-.066-.313-.15-.65-.206-.76-.45-1.55-.72-2.697-1.55-5.3-.31-.982-.65-1.95-.25-.804-.55-1.6-.039-.175-.1-.35-.427-1.233-.9-2.45-.864-2.418-1.85-4.75-.928-2.292-1.95-4.5-1.804-3.927-3.85-7.6-1.022-1.837-2.1-3.6-.58-.965-1.2-1.9m-118.05-1.35l-1.55-1.15q-1.362-.986-2.65-2-.068-.036-.15-.1l-1.85-1.4-.05-.05q-.04.11-.1.2-3.033 4.08-5.7 8.55-.84 1.43-1.65 2.9-1.508 2.707-2.9 5.55-.449.967-.9 1.95-2.06 4.453-3.85 9.25-.417 1.19-.85 2.4-.147.424-.3.85-.695 2.07-1.35 4.2-.872 2.84-1.65 5.8-.081.3-.15.6-.369 1.338-.7 2.7-.066.254-.15.5h.05q-.096.499-.25 1-.032.3-.1.6-.162.698-.35 1.4-.344 1.68-.7 3.4-.007.088-.05.15-.155.931-.35 1.85-.168 1.017-.35 2.05-.05.2-.05.4v.1q3-2.6 7.05-3.35.15-.05.3-.05l1.85-.25q8.103-.279 12.65 4.75l-2.8 11.75q-.529 2.099-1.05 4.2-.44 1.7-.9 3.4 0 .1-.05.2l-.9 3.95v.05h.05q-.3 2.5-.45 3.65l.05.05-1.15 10.65q16.7 2.55 31.05 1.25.3-.05.65-.05 4.3-.45 8.35-1.2l.1.05v-12.5h-.1v-30.6l.05 1.4q0-6.8-.5-12.15 0-.25-.05-.5-.05-.7-.15-1.35-1.35-11.25-5.9-22.45-.3-.7-.55-1.35-.356-.747-.7-1.5-9.45-3.707-18.05-9.6-.086-.071-.2-.15z" id="ShiLon101__Layer9_1_FILL"/><path fill="#6F592B" d="M247.6 264.45v.05l4.2 21.4q.05.2.2.35.2.1.4.05t.3-.2v-.05q.1-.05.1-.15v-.2l-4.2-21.45q-.05-.2-.25-.3-.15-.15-.35-.1-.107.027-.2.1-.08.057-.15.15-.1.15-.05.35m-1.15-29.75q.221-.923.45-1.9l-.55.45q-.52.36-1.05.7-.11.793-.25 1.6-1.65 8.7-7.15 17.75l-11.75.15 9.35 7.25q-12.4 18.55-17 43.05v4.65q.6-1.9 1.05-3.75 6.8-29.2 18.05-44.1l-8.45-6.25 9.35.1q4.4-5.55 7.95-19.7m-93 64.55q-.65-.65-1.55-.65t-1.5.65q-.65.65-.65 1.55t.65 1.55l.3.3q.5.35 1.2.35.25 0 .5-.05.55-.1 1.05-.6.65-.65.65-1.55t-.65-1.55m-.35 9.15q-.55-.4-1.2-.4-.45 0-.8.15-.4.15-.7.5-.65.65-.65 1.55t.65 1.55q.6.65 1.5.65t1.55-.65q.65-.65.65-1.55t-.65-1.55q-.15-.15-.35-.25m-2.7-19.25q-.65.65-.65 1.55 0 .25.05.5.1.35.3.65.1.2.3.4.4.45.95.6.1 0 .25.05h.3q.25 0 .5-.05.6-.15 1.05-.6.65-.65.65-1.55t-.65-1.55q-.5-.5-1.1-.6-.2-.05-.45-.05-.15 0-.3.05-.15 0-.25.05-.55.1-.95.55m1.95-10.6q-.2-.05-.45-.05-.15 0-.3.05-.15 0-.25.05-.55.1-.95.55-.65.65-.65 1.55 0 .25.05.5.1.35.3.65.1.2.3.4.4.45.95.6.1 0 .25.05h.3q.25 0 .5-.05.6-.15 1.05-.6.65-.65.65-1.55t-.65-1.55q-.5-.5-1.1-.6m-15.7-14.6q-.2.1-.25.3l-4.2 21.45q-.017.113 0 .2l.05.15q.031.025.05.05.1.15.3.2.2.05.4-.05.15-.15.2-.35l4.2-21.4v-.05q.05-.2-.05-.35-.15-.2-.35-.25-.2-.05-.35.1m2-30.7l-1.45-1.1q.378 1.694.8 3.3 3.5 13.55 7.75 18.95l9.35-.1-8.45 6.25q11.25 14.9 18.05 44.1v-2.95q-3.2-21.95-15.95-41l9.35-7.25-11.75-.15q-5.35-8.7-7-17.15-.286-1.388-.5-2.75-.086-.071-.2-.15z" id="ShiLon101__Layer9_2_FILL"/><path fill="#9A7D3A" d="M241.4 299v9.35h17.15l-.75-2.95h-14.6l-1.2-7-.6.6m11.1-70.4l-1.8 1.4h-.05q-.537 1.44-1.05 2.85-.3.8-.6 1.65-.55 1.75-1.05 3.55-1.2 4.35-1.7 8.65-.1.65-.15 1.3-.1 1.2-.2 2.45-.15 2.8.05 5.6.25 4.1 1.8 8.95l.9-.45q-1.4-3.55-1.6-6.35-.25-2.95-.15-5.9.1-3.5.6-7 .15-.75.25-1.5.4-2.15.95-4.3.45-1.85 1.05-3.65.65-2 1.4-3.95l.4-.9q.45-1.2.95-2.35v-.05M143.8 299l-.6-.6-1.2 7h-14.9q0 .1-.05.2l-.7 2.65h17.45V299m-11.2-70.3q1.115 2.506 2 4.95l.7 2.2q.6 1.8 1.05 3.65.55 2.15.95 4.3.1.75.25 1.5.5 3.5.6 7 .1 2.95-.15 5.9-.2 2.8-1.55 6.35l.85.5q1.55-4.9 1.8-9 .2-2.8.05-5.6-.1-1.25-.2-2.45-.05-.65-.15-1.3-.5-4.3-1.7-8.65-.5-1.8-1.05-3.55v-.1q-.742-2.102-1.6-4.3-.068-.036-.15-.1l-1.7-1.3z" id="ShiLon101__Layer9_3_FILL"/><g id="ShiLon101__Layer9_0_FILL"><path fill="#DFE8EC" d="M177.5 317.75h.05v-.05l-.05.05z"/><path fill="#1750A4" d="M188.85 318.4h-.05l.05.05h.05l-.05-.05m29.65.8h-.05l.05.05v-.05m-27.45-38l.05-.05-.1-.1.05.15z"/><path fill="#0C2852" d="M190.2 317.95q-.2-.1-.35-.2 0 .047.05.1l.3.1z"/><path fill="#17468A" d="M218.5 319.25h-.05v.2h.05v-.2z"/><path fill="#857257" d="M218.45 319.25v-.05h-.2v.05h.2z"/><path fill="#715E4A" d="M218.45 319.2v.05h.05l-.05-.05z"/></g></defs><use xlink:href="#ShiLon101__Layer18_0_FILL" xmlns:xlink="http://www.w3.org/1999/xlink"/><use xlink:href="#ShiLon101__Layer18_1_FILL" xmlns:xlink="http://www.w3.org/1999/xlink"/><use xlink:href="#ShiLon101__Symbol_541_0_Layer0_0_FILL" xmlns:xlink="http://www.w3.org/1999/xlink" transform="translate(180.6 257.6)" id="ShiLon101__col1n"/><use xlink:href="#ShiLon101__Symbol_503_0_Layer0_0_FILL" xmlns:xlink="http://www.w3.org/1999/xlink" transform="translate(180.6 257.6)" id="ShiLon101__col1d"/><use xlink:href="#ShiLon101__Symbol_444_0_Layer0_0_FILL" xmlns:xlink="http://www.w3.org/1999/xlink" transform="translate(158.15 245.85)" id="ShiLon101__col2n"/><use xlink:href="#ShiLon101__Symbol_412_0_Layer0_0_FILL" xmlns:xlink="http://www.w3.org/1999/xlink" transform="translate(158.15 245.85)" id="ShiLon101__col2d"/><use xlink:href="#ShiLon101__Symbol_390_0_Layer0_0_FILL" xmlns:xlink="http://www.w3.org/1999/xlink" transform="translate(189.4 288.5)" id="ShiLon101__col2s"/><use xlink:href="#ShiLon101__Layer9_0_FILL" xmlns:xlink="http://www.w3.org/1999/xlink"/><use xlink:href="#ShiLon101__Layer9_1_FILL" xmlns:xlink="http://www.w3.org/1999/xlink"/><use xlink:href="#ShiLon101__Layer9_2_FILL" xmlns:xlink="http://www.w3.org/1999/xlink"/><use xlink:href="#ShiLon101__Layer9_3_FILL" xmlns:xlink="http://www.w3.org/1999/xlink"/></g></g><g transform=""><g transform=""><defs><path fill="#E9AF8B" d="M34.65 11q0-3.2-2.25-5.45-1.65-1.65-3.8-2.1-.3-.05-.55-.1-.25-.05-.5-.05-.15-.05-.35 0-.15-.05-.35 0h-.4q-.7.05-1.25.15-.15.05-.35.1Q20.7-.05 15.1 0 9.35-.05 5.2 3.65q-.05.05-.1.15-.2.1-.35.25-.05 0-.05.05l-.05.05-.2.2q-.25.25-.45.5-.05 0-.05.05l-.05.05-.3.3Q0 9.4 0 15q0 6.2 4.45 10.6Q8.85 30 15.1 30q2.9 0 5.4-.95.1-.05.2-.05.05-.05.15-.1h.05q.05-.05.15-.1.4-.15.75-.35l.8-.4q.1-.05.15-.1l.1-.05q1.5-.95 2.9-2.3 3.25-3.25 4.1-7.45.05-.05.1-.05l.3-.1q1.15-.55 2.15-1.55 2.25-2.25 2.25-5.45m135.6-6.85V4.1l-.05-.05q-.2-.15-.35-.25-.05-.1-.1-.15-4.2-3.7-9.9-3.65-5.65-.05-9.7 3.55-.2-.05-.35-.1-.4-.1-.8-.1l-.8-.05q-.2-.05-.35 0-.25-.05-.4 0-.25 0-.45.05h-.05q-.25.05-.45.1-2.2.45-3.85 2.1-2.3 2.25-2.3 5.45t2.3 5.45q.95 1 2.15 1.55l.3.1q.85 4.25 4.1 7.5 1.35 1.35 2.9 2.3.05 0 .1.05t.15.1q.35.2.75.4.35.2.75.35l.2.1h.05q.05.05.15.1.1 0 .2.05 2.5.95 5.4.95 6.25 0 10.65-4.4t4.45-10.6q-.05-5.6-3.65-9.75-.15-.15-.25-.3l-.1-.1q-.25-.25-.45-.5-.15-.1-.25-.2z" id="BodHan001__Symbol_2_0_Layer0_0_FILL"/><path fill="#D79C78" d="M15.5 7.75q0-3.2-2.25-5.45Q11.6.65 9.45.2 9.15.15 8.9.1 8.65.05 8.4.05q-.15-.05-.35 0Q7.9 0 7.7.05h-.4Q6.6.1 6.05.2 5.9.25 5.7.3q-1.95.45-3.45 2Q0 4.55 0 7.75t2.25 5.45q1.7 1.7 3.95 2.1l1.5.15h.1l.75-.05q1.15-.1 2.15-.5.05-.05.1-.05l.3-.1q1.15-.55 2.15-1.55 2.25-2.25 2.25-5.45M12.45 3q1.95 1.95 1.95 4.75 0 2.75-1.95 4.7-.85.9-1.85 1.4-1 .45-2.05.55l-.75.05h-.1l-1.3-.15q-1.9-.4-3.35-1.85-2-1.95-1.95-4.7Q1.05 4.95 3.05 3q1.45-1.45 3.3-1.8.5-.1 1-.15H7.8q.4 0 .85.1 2.15.25 3.8 1.85m124.3 4.75q-.05-3.2-2.3-5.45-1.5-1.55-3.4-2H131q-.2-.05-.35-.1-.4-.1-.8-.1l-.8-.05q-.2-.05-.35 0-.25-.05-.4 0-.25 0-.45.05h-.05q-.25.05-.45.1-2.2.45-3.85 2.1-2.3 2.25-2.3 5.45t2.3 5.45q.95 1 2.15 1.55l.3.1q1 .4 2.25.55l.75.05h.1l1.5-.15q2.2-.4 3.9-2.1 2.25-2.25 2.3-5.45M133.7 3q1.95 1.95 1.95 4.75 0 2.75-1.95 4.7-1.45 1.45-3.35 1.85l-1.3.15h-.1l-.75-.05q-1.1-.1-2-.55-1.05-.5-1.95-1.4-1.95-1.95-1.9-4.7-.05-2.8 1.9-4.75 1.65-1.6 3.8-1.85h.05q.4-.1.85-.1H129.4q.5.05 1 .15 1.85.35 3.3 1.8z" id="BodHan001__Symbol_1_0_Layer0_0_FILL"/></defs><use xlink:href="#BodHan001__Symbol_2_0_Layer0_0_FILL" xmlns:xlink="http://www.w3.org/1999/xlink" transform="translate(105.05 280.6)" id="BodHan001__col1n"/><use xlink:href="#BodHan001__Symbol_1_0_Layer0_0_FILL" xmlns:xlink="http://www.w3.org/1999/xlink" transform="translate(124.2 283.85)" id="BodHan001__col1d"/></g></g><g transform=""><g transform=""><defs><path fill="#000000" d="M28.05.95q0-.4-.25-.65-.3-.3-.7-.3H.95Q.55 0 .3.3 0 .55 0 .95t.3.7q.25.25.65.25H27.1q.4 0 .7-.25.25-.3.25-.7z" id="FacMou003__Symbol_3_0_Layer0_0_FILL"/></defs><g id="FacMou003__col1n" transform="translate(178.45 224.6)"><use xlink:href="#FacMou003__Symbol_3_0_Layer0_0_FILL" xmlns:xlink="http://www.w3.org/1999/xlink" id="FacMou003__col1n_FL"/></g></g></g><g transform=""><g transform=""><defs><path fill="#FFFFFF" d="M105.35 24.4q-1.2-4.7-3.8-8.85-1.7-2.75-4.05-5.3-.15-.2-.3-.35Q88.85.9 77.85.1 66.8-.75 59.55 7q-5.35 5.75-6.3 13.7-1-7.95-6.35-13.7Q39.65-.75 28.65.1 17.6.9 9.25 9.9q-.3.3-.55.65l-.3.3q-5 5.65-7 12.4Q.35 26.8.1 30.65q-.2 2.7.05 5.15.25 3.15 1.25 6 1.65 4.65 5.15 8.4 7.25 7.75 18.25 6.9 11.05-.8 19.4-9.75 7.8-8.4 9.05-19.25 1.2 10.85 9 19.25 8.35 8.95 19.4 9.75 11 .85 18.25-6.9 3.75-4 5.35-9.15.75-2.4 1-5.05.3-2.6.1-5.4-.2-3.2-1-6.2z" id="FacEye003__Symbol_1_0_Layer0_0_FILL"/><path fill="#000000" d="M1 5.6q.95 1 2.4 1.05Q4.8 6.6 5.8 5.6q1-.95 1-2.35 0-1.35-1-2.35-1-.95-2.4-.9Q1.95-.05 1 .9q-1 1-1 2.35 0 1.4 1 2.35m59.35-2.35q0-1.35-1-2.35-.9-.95-2.3-.9-1.45-.05-2.45.9-1 1-1 2.35 0 1.4 1 2.35 1 1 2.45 1.05 1.4-.05 2.3-1.05 1-.95 1-2.35z" id="FacEye003__Symbol_6_0_Layer0_0_FILL"/></defs><g id="FacEye003__col1n" transform="translate(139.3 136.2)"><use xlink:href="#FacEye003__Symbol_1_0_Layer0_0_FILL" xmlns:xlink="http://www.w3.org/1999/xlink" id="FacEye003__col1n_FL"/></g><g id="FacEye003__col2n" transform="translate(142.85 163.45)"><use xlink:href="#FacEye003__Symbol_6_0_Layer0_0_FILL" xmlns:xlink="http://www.w3.org/1999/xlink" id="FacEye003__col2n_FL"/></g></g></g><g transform=""><g transform=""><defs><path fill="#252525" d="M31 150.5v.1h.05q-.048-.048-.05-.1m0-.25v.1h.05q-.048-.048-.05-.1m.05 0v.1h.05q-.048-.048-.05-.1M203.45 48.6v.05l-.1-.2q-.1-.15-.15-.3h.05q-.8-1.6-1.45-2.8-5.25-8.8-11.1-15.1-16.35-18.2-36.2-25.85-.5-.2-.95-.35-.1-.1-.2-.1-.55-.25-1.05-.45-10.65-4.3-23.15-1.6-3.65.8-4.95 1.75-1.4 1.25-2.15 1.8-.25-.05-.4-.15-3.05-1.45-6.8-2.75h-.1q-13.15-5.05-26.85 0Q79.1 5.8 63.75 13.2l-1.35.65q-9.1 4.25-17.05 10.7-6.5 5.55-11.25 12.1-3.7 5.2-6.7 10.05-.55.8-1.05 1.9-4.15 6.65-6.8 12.8-5.9 13.3-6.05 25.2v.05q-.05.2-.05.45-.05.1-.05.25-.05.05-.05.2-1.1 12.05-11 22.15-.35.25-.65.5.15.05.35.1 3.7 1.15 7.45-1.9 0-.05.1-.05-.65 10.4-6.45 20.5-3.15 4.75-3.15 5v.15q1.45-.05 2.35-.25 1.4-.45 2.2-.65-.05.15-.05.25V133.5q-.35.7-.55 1.45-.05.3-.35 1.05-.45.75-1.15 1.9-1.4 2.25-1.4 2.45v.1q0 .05.05.1l.5.05h1.35q1.7-.1 2.6-.3.55-.05 1.65-.3.45-.1 2.45-.75v.2q-.05 1.15-.25 2.45.05-.594.05-1.05-.002.105-.05.2v.05q0 .4-.05 1-1.1 5.65-5.95 13.1-.15.3-.25.45h.05q4.35.8 7.9-1.05.55 6.2-2.05 14.1 2.9.15 5.25-2.4.05-.05.1-.05 0-.05.05-.05 6.1 3.95 8.35 13.5.15.5.25 1 .05.6.05 1.2 0 2.4-1.25 4.1-.1.1-.15.25-.05 0-.05.05h.05q.15 0 1.9-.25t3.65-3q.6.9.5 2.9 0 .2-.05.5v.05l-.1.3q-.75 2.05-4.9 2.1-.05.05-.1.15 1.7 2.3 6.05 2.85-.05.1-.15.2-.9 1.1-2.85 1.55-.65.15-1.05.35 4.5 4.6 13.1 6 3.4.35 6.55-.55.2-.4.45-.8 4.5-8.7 9.9-15.65l-.65-.5-.05-.05q-.15-.1-.25-.15-.15-.15-.3-.25 0-.05-.05-.05-1.8-1.55-3.55-3.15-1.65-1.5-3.25-3.1-7.25-7.25-12.6-15.25-3.8-5.65-6.6-11.65 6.65-4.55 11-12.2 2.5-3.55 4.25-6.3 2.3-3.65 3.1-5.65h.2q10.2 2.3 14.95-11.6 0-.05.05-.05.3-.3.25 1.25-.15 2.15-1.25 6 1.4-1.55 1.6-1.85 1.05-1.7 2.6-4.9 1.4-2.75 5.15-8.3 5.45-9.6 8.45-16.8 1.2-2.9 2.95-8.4 1.95-6.25 2.75-8.35.7-1.9 2.05-4.5-1.1 4.35-.95 9.45.2 6.3-3.65 16.35-.25.5-.45 1.15-.85 2.25-2.2 6l-.4 1.1q.75-1.25 1.95-2.9 2.176-3.19 3.65-5.4.1-.15.2-.25l.45-.8.4-.6.3-.5q1.25-2 1.45-2.25.65-.85 1.35-1.9 2.6-3.95 6-10.7.25-.55.55-1.1l.05-.05.3-.6.1-.25q.05-.25.15-.45 1.05-2.75 2-4.65 2.9-5.45 7.1-7.15.3-.15.65-.25 7.05-2.5 13.25 3.25.5-.45 2.3-1.25 4.2-2 6.55-2 4.1 0 8.15 11.2.55 1.5 1.1 3.25 2.8 8.55 4.45 12l.2.4q.15.5.5 1.4.65 1.7 1.45 3.1.8 1.4 1.4 2.3.6.85 1.75 2.1l-.1-.3q-1.4-5.15-2.15-10.5-.15-.8-.25-1.65-.75-5.85-.75-11.95v-7.15V64q.5.75.9 1.4 1.05 2.15 2.05 4.35l.3.8q6.7 15.4 8.2 32.95.3 3.35.65 4.45 1.5-5.8 1.9-14.25l3 22.7.1.5q.9 3.9 2.05 7.8-.2-12.9 1.75-25.8.5 12.3 5.2 24.3l.15.75q1.65 3.65 5.15 9.05.25.45.65 1l.55.35q10.25 12.95 25 16.95-5.25 10.3-13.3 19.45-2.3 2.55-4.75 5-1.6 1.6-3.2 3.1-1.5 1.35-4.8 4.2 5 6.45 8.25 13.15l.95.5q.05 0 .05.05l1.1.7q1.95 1.2 3.95 2 .1.05.25.1 9.35 3.9 15.6 0 .1-.05.25-.1-.35-.25-.65-.5-5.55-2.95-4.05-8.55.05-.1.15-.2.1.2.3.5.45.85 1.5 1.95 2.05 2.25 4.7 2.5.55-.1 1-.35.4-.25.55-.35-1.7-.85-2.75-3.15-1-2.2-1-4v-.2q0-.15.05-.3.4.6 1.45 1.45 1.75 1.4 3.55 1.55h.2q-3.6-6.5-1.8-13.95 1.65-8.6 5.4-12.9.5 4.7 5.55 6.25l.05.05q-.6-.7-1.3-4.7-.7-4.05-.55-5.4.097-1.356.05-1.6.707 3.004 3.8 4.75 3.1 1.75 4.35 1.75.3 0 .55-.05.05 0 .15-.05-.45-.65-.9-1.5-1.05-2.25-1.55-4.1-.05-.15-.05-.25-1.35-3.25-1.35-7 0-1.2-.05-2.4.45-6.7-2.45-13.4 1.15.3 4.5.6 2.35.2 2.75-.2.05-.05.05-.1-4.1-2.3-6.65-7.1 6.6 4.2 14.1 2.1-.4-.1-5.4-3.1-5.5-3.4-7.6-6.65-2.1-3.25-2.8-5.1-.7-2.2-1.1-3.2-.45-2.05-.7-2.95-.05-.1-.05-.15 0-.05-.05-.15l.2.05q7.4 2.55 14.3.4l-9-6.35q-3.05-2.2-3.8-2.7-.4-.3-.95-.75h-.05l-.05-.05q-.05 0-.15-.25-.15-.8-.6-2.7-1.15-5.15-1.65-7.8-.5-2.65-2.85-13.75-2.1-9.8-2.45-11-2.45-8.65-3.9-12.45-.1-.25-.15-.45-.75-1.4-1.6-2.9M93.9 33.15l-.05.15v-.1q0-.05.05-.05z" id="HaiMed025__Symbol_81_0_Layer0_0_FILL"/><path fill="#121212" d="M97.25 26.9q.1-.05.15-.1.05 0 .1-.05h.1v-.05q-.05 0-.15.05-.65.15-1.35.35-2.75.85-4.05 1.15-2.9 1.15-3.85 1.55-5.75 2.2-10 5.85-2.25 1.7-3.7 3.6-.65.85-1.2 1.65-.1.2-.2.35-.2.3-.35.6Q67.45 51.1 65 64.3q-.05 0-.05.05-.25 1.05-.45 2.2-.75 4.05-2.05 12.35-.9 4.45-2 8.05-.5 3.9-4.05 10.5-4.75 8.3-6.15 10.95-1.1 2.2-3.75 5.8-3.9 5.35-4.05 5.55-.5.85-1.05 1.65-.25.45-.55.95-1.1 2-3.2 4.75-1.3 1.6-2.95 3.55-2.25 2.55-5.2 5.5-.3.3-.6.65-.45.35-.8.65-2.15 1.7-3.7 2.7-.1.05-.15.1-2.95 1.65-4.5 2.7.9-1.55 3.55-5.65 0-.05.05-.05 4.45-6.95 5.9-10.95l.1-.05q.7-1.15 1.55-2.4 1.45-3.25 2.2-4.4 1.4-2.45 2-3.95.15-.45.45-.9-5.4 4.05-6.65 4.5-.45.45-.65.6-1.5 1-2.8 1.95v-.15q-.1.05-.1.15-.05.05-.15.1-.35.25-.65.45-2.15 1.6-2.95 2.55-.3.2-.5.4 3.9-5.1 10.75-14.85.45-.45 1.3-1.45.85-1.1 3.65-4.2 2.7-3.1 5-6.9 2.25-3.85 14.7-26.45.15-.3.35-.65-.2.3-.4.65-14.25 22.3-17.1 26.35-2.95 4.1-7.2 8.65-1.05 1.45-2.9 4-2.7 3.6-4.4 4.9.85-2.1 1.1-3.05.05-.25 1.75-4.6 1.7-4.2 1.7-5.4 0-.3 1.35-3.7-2.15 4.1-4.3 7.3-2.15 3.15-3.3 5.1-1.2 1.9-4 5.75.85-1.4-.15.1-1.75 2.5-4.85 5.65 1.9-4.9 1.9-5.25 0-.6 1.55-5 .55-1.4.9-2.5l.2-.6q.1-.95.1-1.75 0-.55-.3-.85 0 .05-3.15 2.75-1.95 1.65-2.7 2.1 1.8-2.45 2.3-3.4 1.7-3.25 2.15-3.85.15-.15.2-.3.45-1.1 1.3-3.25.15-.3.3-.65.1-.35.25-.7.7-1.5 1.2-2.65-.75.2-2.95 1.4-2.3 1.3-2.75 1.6 1.6-3.4 11.05-13.75-3.4 2.4-8.75 5.25L13.8 93.2l-.1.05q-.05.2-.15.45-.15.15-.05-.3-.1-.15 0-.2l.3-.1h.05l17.6-18.85Q32.8 72.55 34 71l7.3-9q1.1-1.75 1.45-2.05.15-.2.05 0l.75-1.05q-.1.05-.15.1h-.05q-.1.05-.15.15l-.1.1h-.05q-1.55 1.3-2.6 2.5-.05.05-.3.35-.2.25-.5.6-.05.05-.15.2-4.1 4.4-5.35 6-3.25 3.4-5.75 5.75l-7.7 7.1q-5.15 4.7-7.05 7.3-.1-.4-.1-.8V85.1l.1-.45q0-.05-.1-.15-.05.25-.05.5v.1q-.05.05-.05.1-.05.1-.05.25v.1q-.04.352-.05.7v-.55q-1.12 12.02-11 22.1-.35.25-.65.5.15.05.35.1 3.7 1.15 7.45-1.9 0-.05.1-.05-.65 10.4-6.45 20.5-3.15 4.75-3.15 5v.15q1.45-.05 2.35-.25 1.4-.45 2.2-.65-.05.15-.05.25V131.6q-.35.7-.55 1.45-.05.3-.35 1.05-.45.75-1.15 1.9-1.4 2.25-1.4 2.45v.1q0 .05.05.1l.5.05h1.35q1.7-.1 2.6-.3.55-.05 1.65-.3.45-.1 2.45-.75v.2Q9.6 138.7 9.4 140q-.05.1-.05.2-1.1 5.65-5.95 13.1-.15.3-.25.45h.05q4.35.8 7.9-1.05.55 6.2-2.05 14.1 2.9.15 5.25-2.4.05-.05.1-.05 0-.05.05-.05 6.1 3.95 8.35 13.5.15.5.25 1 .05.6.05 1.2 0 2.4-1.25 4.1-.1.1-.15.25-.05 0-.05.05h.05q.15 0 1.9-.25t3.65-3q.6.9.5 2.9 0 .2-.05.5v.05l-.1.3q-.75 2.05-4.9 2.1-.05.05-.1.15 1.7 2.3 6.05 2.85-.05.1-.15.2-.9 1.1-2.85 1.55-.65.15-1.05.35 4.5 4.6 13.1 6 3.4.35 6.55-.55.2-.4.45-.8 4.5-8.7 9.9-15.65l-.65-.5-.05-.05q-.15-.1-.25-.15-.15-.15-.3-.25 0-.05-.05-.05-1.8-1.55-3.55-3.15-1.65-1.5-3.25-3.1-7.25-7.25-12.6-15.25-3.8-5.65-6.6-11.65 6.65-4.55 11-12.2 2.5-3.55 4.25-6.3 2.3-3.65 3.1-5.65h.2q10.2 2.3 14.95-11.6 0-.05.05-.05.3-.3.25 1.25-.15 2.15-1.25 6 1.4-1.55 1.6-1.85 1.05-1.7 2.6-4.9 1.4-2.75 5.15-8.3 5.45-9.6 8.45-16.8 1.2-2.9 2.95-8.4 1.95-6.25 2.75-8.35.7-1.9 2.05-4.5.9-3.6 2.6-6.7.15-.3.3-.65.7-1.4 1.55-2.9.15-.3.35-.55 6.8-11.2 19.45-9.8.15.05.3.15l.1-.1q-.15-.05-.25-.15-2.2-1.1-4.65-1.1-2.5 0-6.2 1.25l-2.35.9q-2 1.3-3.1 2.2-.6.4-1.25.9l-.6.9Q89.7 52.7 88 55.6q-1.55 2.65-2.9 5.25-.85 1.7-1.7 3.8-.7 1.9-1.4 4.1-2.35 7.75-2.4 7.95-.95 2.65-2.95 6.9-.25.4-.45.85v.15q0 .05-.05.15 0 .05-.05.1-.2.5-.4 1.05-2.2 5.8-5.75 12.4-.8 1.15-1.45 2.4-.6 1-1.2 2.1-.9 1.35-3.55 4.55-1.15 1.4-1.7 2.2-.05-.1-.05-.2.2-1 .5-2.95 1.2-4.35 4.2-17.05-5.75 12.85-11.2 19.45-1.05 1.2-1.9 2.2-.95.8-1.8 1.45 2.75-4.4 7.4-15.6.95-2.45 1.75-4.45 0-.15.1-.3.05-.75.65-2.1.2-.95.6-2.1.15-.55.35-1.3 1.6-5.5 2-6.85.45-2.15.75-3.25.15-.65.35-1.25.6-3.8.95-5.85h-.05q.15-.25.2-.65.45-1.55.45-2.2 0-.15-.1-.3.3-1.4.55-2.6.15-.65.25-1.25.25-1.35.5-2.5.4-2.35.9-4.5 2.4-6.2 4.7-10.4 4.85-11.45 22.65-17.9.15-.05.3-.15.1-.05.2-.05m-73.6 154.5h-.05l.05-.15v.15m63-169.55q.45-.2 10.35-3.6-2.95-1.7-19.35 6-20.6 12.2-21.05 12.5-.15.15-.35.3-.1.1-.2.15-4.3 3.35-12.35 12.85-1.85 2.1-3.15 3.8l-.3.4q-4.75 5.75-7.8 12.1-3.25 6.55-.6 2.55 2.65-4.05 1.9-2.75 4.2-5.95 6.7-8.95 2.1-2.45 4.35-4.95l.4-.5q.65-.8 1.4-1.55 3.75-5.3 5.8-7.4 3.75-3.75 10.1-7.15 1.5-.8 7.95-4.7 0-.05.05-.05 1.8-1.1 4-2.45 7.45-4.7 12.15-6.6m40.85-10.4Q128.6.4 129.15 0q-3.65.8-4.95 1.75-1.4 1.25-2.15 1.8-.25-.05-.4-.15-3.05-1.45-6.8-2.75h-.1l.05.05q1.5 1.65 3.4 4 .15.15.3.4.3.4.65.85V6q-.35-.2-.85-.35-1.55-.5-3.65-.5-.55 0-1.1.1-1.15.1-1.25.2l-1.5.7q1.3.55 3 1.4.85.45 1.55.8.6.6 1.8 1.55.2.2.9 1.35.05.05.1.15H118q-2.4-.85-2.6-.9h-1.15q.9.65 2.2 2.1.1.15 1.2 1.3.2.2.35.4.25.5.6 1.25v.05h.05v.05q.1.2.3 1.25-.75-.2-1.45-.2-1.35 0-1.95.1-.2.05-.35.05.45.65 1.55 1.75.45.85 1.75 2.6.1.15.85 1.65.05.05.1.2-2.15-.6-2.55-.65-.55-.05-.95-.1.15.65 2.35 3.55l.75 1.85q.05.1.2.85-.3-.15-.45-.15l-2.85-.7h-.9q.4.55 1.35 1.6.75 1.1 1.25 2.2.55 1.3.75 2.25.05.1.1.45-.1 0-.15-.05-1.3-.55-1.9-.7-1.4-.25-1.9-.4-.1 0-.15-.05l-.1.1q-.2.05-.2.35l1.45 1.65.85 1.3q.25.7.8 2.05l.25.8q.05.8.1 1-.3-.1-.65-.2l-1.5-.4q-.85-.15-1.25-.25v.15q0 .3 1.15 2.2.35.75.75 2.3.15.5.6 2.65.05.2.1.35h-1.7l-.4-.15h-.4q.2.35.4.85.6 1.1 1 2.05.35.5.35.85.65 1.6.65 2.3l.15.8q0 .35-.35.35l-2.45-.35h-.15q-.35-.05-.75-.15-4.4-.85-7.55-.85-7.3 0-10.4 6.5-1.5 3-1.7 6.15v.05q-.15.3-.65 2v.15q-.1.1-.1.25-.55 1.85-1.45 5.05l-.3 1v.15q-.3 1.15-.7 1.95-.05.3-.05.65-.35 1.6-2.65 6.55 1-1.5.3-.3-.05.1-.15.25l-.2.3v.05q-.1.15-.15.25l-1.2 2.4q-.2.45-.45.9 0 .05-.05.1 0 .05-2.2 3.75-.05.05-.1.15.1-.15.2-.25l1.9-3.2q-.3.55-.75 1.3 1.25-2 1.45-2.25.65-.85 1.35-1.9 2.6-3.95 6-10.7.25-.55.55-1.1l.05-.05h-.05q.35-.8.65-1.55.95-2.5 1.85-4.3l.1-.1q2.9-5.45 7.1-7.15.3-.15.65-.25 7.05-2.5 13.25 3.25.5-.45 2.3-1.25 4.2-2 6.55-2 4.1 0 8.15 11.2.55 1.5 1.1 3.25 2.8 8.55 4.45 12-1-4-1.4-9.6l.2-2.7q0-1.5-.05-2.95-.2-4.55-1.05-8.2-1.7-7.8-6-9-2.4-.65-4.65 0-1.55.15-2.35.3.15-1.6 3.3-4.9.85-.9 1.5-1.45-.1-.05-.25-.05-.3-.05-.5-.05H125.35q.203-.607.3-.85.8-1.45 1.25-2.35.55-.6 1.2-1.05v-.1q.15-.05.3-.2l.2-.15q1.35-1.1 3.9-3.1-2.55.05-2.95.1-.1 0-2.3.2-1.8.4-1.85.4h-.15l.15-.15q.7-.65 1.05-1.2l.5-.75q1.3-1.15 1.85-1.5l2.45-1.5q.5-.45 1.55-.85.3-.15.5-.4-.2-.05-.4-.05h-1.65q-2.55.1-3.65.5-.1.05-.25.1-.35.1-.8.2-.4.1-.7.25.15-.4.35-.85.1-.2 1-1.5.1-.15.25-.3.5-.55 1.3-1.25.15-.25 1.9-1.45.85-.6 1.5-.9l-.25-.05h-3.3q-2 .3-2.25.4-.6.3-.95.5.3-.75.3-.8.5-.9.9-1.55.35-.4.8-.9 3.1-3.1 3.1-3.45 0-.45-.5-.5-.2-.1-2-.15-.85-.15-1.25-.15 0-.05-1-.05.2-.45.25-.75.1-.05.1-.15 0-.05.05-.15v-.1q0-.1.1-.1.35-.5.75-.95 2.8-2.1 2.8-2.3 0-.7-2.25-.7l-1-.1q0-.05-1.1-.05 1.55-4.05 4.1-6.45-2.25-.3-4.9.55l.35-.6q.05-.15.3-.45.55-.75 2.1-2.45.85-.85 1.65-1.6-.1-.05-.15-.05 1.1-.6 1.1-.75.2-.7-1.6-.4 0-.1-.25-.1-2.4 0-3.45.45 0-.65.8-1.5.6-.85 2-1.85m-3.1 27.15q-.1.25-.25.55v-.05q0-.25.25-.5m40.3 66q-.05-.1-.05-.25-.6-1.55-1.05-2.85-1.25-3.75-1.6-6.65-.5 1.6-.9 2.5-.5.9-2 3.15-.7 1-1.1 1.65-.05 0-.15.15v-.1q-.142-1.985-.4-3.95.014-.088 0-.2l-.4-2.9q-1.8-11.5-6.8-22.35-3.15-5.3-7.2-8.2-.75-.5-1.25-.9.2 1 .3 3 .05.65.05 1.55.1 1.5.15 3.6.35.55.7 1.05l.15.6q1.05 2.15 2.05 4.35l.3.8q6.7 15.4 8.2 32.95.3 3.35.65 4.45 1.5-5.8 1.9-14.25l3 22.7.1.5q.9 3.9 2.05 7.8-.2-12.9 1.75-25.8.5 12.3 5.2 24.3 1.6 3.75 5.35 9.55.45.75 1.15 1.6 10.25 12.95 25 16.95-5.25 10.3-13.3 19.45-2.3 2.55-4.75 5-1.6 1.6-3.2 3.1-1.5 1.35-4.8 4.2 5 6.45 8.25 13.15l.95.5q.05 0 .05.05l1.1.7q1.95 1.2 3.95 2 .1.05.25.1 9.35 3.9 15.6 0 .1-.05.25-.1-.35-.25-.65-.5-5.55-2.95-4.05-8.55.05-.1.15-.2.1.2.3.5.45.85 1.5 1.95 2.05 2.25 4.7 2.5.55-.1 1-.35.4-.25.55-.35-1.7-.85-2.75-3.15-1-2.2-1-4v-.2q0-.15.05-.3.4.6 1.45 1.45 1.75 1.4 3.55 1.55h.2q-3.6-6.5-1.8-13.95 1.65-8.6 5.4-12.9.5 4.7 5.55 6.25l.05.05q-.6-.7-1.3-4.7-.7-4.05-.55-5.4.097-1.356.05-1.6.707 3.004 3.8 4.75 3.1 1.75 4.35 1.75.3 0 .55-.05.05 0 .15-.05-.45-.65-.9-1.5-1.05-2.25-1.55-4.1-.05-.15-.05-.25-1.35-3.25-1.35-7 0-1.2-.05-2.4.45-6.7-2.45-13.4 1.15.3 4.5.6 2.35.2 2.75-.2.05-.05.05-.1-4.1-2.3-6.65-7.1 6.6 4.2 14.1 2.1-.4-.1-5.4-3.1-5.5-3.4-7.6-6.65-2.1-3.25-2.8-5.1-.7-2.2-1.1-3.2-.45-2.05-.7-2.95-.05-.1-.05-.15 0-.05-.05-.15l.2.05q7.4 2.55 14.3.4l-9-6.35q-3.05-2.2-3.8-2.7-.4-.3-.95-.75h-.05l-.05-.05q-.05 0-.15-.25-.1.25-.45-.15-.05-.15-.15-.25-.65-.55-1.4-1.2-1.4-.75-5.3-3.6-2.25-1.75-5.35-4.15-1.2-.95-4.95-4.85l-.1-.05q-.25-.3-.4-.5.05.3.25.65.25.55.6 1.3.6 1.3 1.1 2.15.4.65.7 1.1.95 1.35 1.75 2.5l.2.4q2.3 2.95 5.5 5.7 3.15 2.65 3.95 3.4.65.55 2.75 2.2.6.45 1.3 1.05H216q-5.25-.45-6.1-.8h-.1q-.9-.35-2.35-.75-1.6-.4-2.05-.55.45.95 1.9 3.9 1.25 2.35 2.15 3.45-.25.15-.45.15-.65 0-10.85-6.95.8 1.25 1.95 3.1 1.95 2.5 4.55 6.65 2.6 4.2 4.25 6.6l2.6 3.25q.1.05.45.35.2.35.5.8-.5 0-1.25-.25t-2.35-1.5q-.2-.15-.35-.25-1.9-1.5-3.05-2.5t-2.5-2.35q-1.4-1.4-7-6.6-4.35-4.05-7.45-7.95.75 1.75 9.75 12.35 3.65 4.4 6.45 7.15 1.85 2.5 3.4 4.55 3.65 4.7 5.6 6.75 0 .25-.15.4-1.15-.35-1.9-.65-.8-.35-1.65-.9-.6-.4-3.05-2.1-1.05-.75-2.1-1.6.4 1.05.75 2.1.2.45 1.05 2.3.35.75.85 1.75.75 1.35 1.2 2.3-1.15-.8-2.65-1.75-.65-.4-1.35-.85-2.45-1.6-4.15-3.1.35 1.55.8 2.8.4 1.25.85 2.75.45 1.5 2.05 3.85.65 1 1.6 2.3-1 .15-3.5-1.35-2.55-1.55-4.05-3.6-1.55-2.1-3.25-4.1-1.7-2.3-4.4-6.2-4.5-7.1-6.05-10.7 0 .5.05 1 .25 1.3.9 5.3 0 .2 1.2 4.95.2 1.1 1.1 2.9.05.25.2.45-1.15-.35-3.3-2.55-.65-.7-3.1-3.4l-4.95-5.9q-4.2-4.6-7.05-12.05-3.35-7.65-4.95-11.8m6.65-14.25q-.1-.4-.15-.65-.1-.25-.15-.4-4.3-13.9-11.25-25.1-.4-.7-.95-1.55-.1-.15-.15-.25-.1-.15-.15-.25-1.8-2.65-2.6-3.6-1.5-1.8-4.5-3.45-4.246-2.298-9-2.3.16-.003.45-.1-1.05 0-3.7.3-3.75.45-4.3 1.25-.1.1-.1.2.15-.05.35-.1 13.3-2.45 20.25 6.2.5.55 1.05 1.25.05.15.15.3.35.6 1 1.75.05.1.1.25.3.6.75 1.3l.6 1.15q.05.1.15.25.1.15.15.35l.15.3q.55 1.1.9 2.05 0 .15.05.25t.15.2q5.85 10 8.5 20.35.3 1.05.65 2.2.1.45.25.95 0 .2.1.5V84q.35.2.65 1l.85 2.45q1.05 2.6 1.5 4.05.2.6.6 1.25 1.1 2.15 1.4 3.1.6 1.8 3.3 7.3.45.95.9 1.75.15-.3.15-.6 0-.05-2.1-5.2-.25-1.8-2.4-7.45-2.45-6.55-2.45-6.7-.2-1.45-.95-4.05v-.05q-.05-.1-.1-.15 0-.05-.05-.1 0-.2-.05-.25m-2.8-31.45l-.1-.2-.15-.15q-.15-.05-.15 0l-.05.05q-.1.3.2 1.75.45 2.1.45 2.45.8 4.3 2.35 8.35.95 1.7 2 5.25.75 2.25 1.7 4.1 0 .05.05.15 7.7 14.35 18.75 24.8 3.7 2.85 6.35 3.2-8-5.4-16.4-17.65-.3-.5-.55-.9v-.05q-1.5-1.75-2.7-3.4-.05-.1-.05-.2-.05-.05-.05-.1-.1-.1-.15-.2-2-2.7-3.2-5-1-2.1-2.5-5.7-1.75-4.55-2.2-5.55-.55-1.15-1.05-2.95-.75-2.55-1.55-5.35-.65-2.05-1-2.7m1.55-9.75q-.25.45-.25.95 0 1.65.9 3.65.2.5.5 1.05 1.05 2 2.8 4.4 1.8 2.45 4.95 6.65l.1.1.05.05q.35.55 1.15 1.35.7.6 1.65 1.4 2 1.55 5.8 4.95 3.85 3.35 10.35 6.6.95.4 1.7.85.55.1 1.25.2-1.7-1.2-3.65-2.6-10.95-8-14.35-11.7-.9-1-1.65-1.75-.1-.15-.2-.25l-.05-.05q-.85-.95-1.4-1.6-1-1-1.35-1.55-2.5-3.15-5.5-7.7-2.4-3.6-2.8-5.05v.05m-3.55-19.9l.2.2q.05.1.15.2.3.25.6.55 2.05 1.85 4.55 5.3l.1.1q.5.75 1.05 1.55.2.25.4.55 2.1 2.95 5.25 7.85 2.75 4 5.3 6.95.05.05.1.15.35.4.8.85-.2-.45-.35-.8l-.15-.75q-.15-.55-.3-.5.1-.15.15-.35-6.35-7.2-10.65-18.65-.45-.75-.6-.9-.2-.3-.5-.6Q160.3 9.2 144.25 9.2q-5.25 0-9.3 1.3-2.95.85-3.55 1.95-.1.15-.15.3l.6-.1.4-.1q12.15-4.45 25.95 2l3.55 1.75q2.4 1.3 4.8 2.95z" id="HaiMed025__Symbol_50_0_Layer0_0_FILL"/><path fill="#434343" d="M44 13.55q.05-.1.1-.15-6.45 3.9-7.95 4.7-6.35 3.4-10.1 7.15-2.05 2.1-5.8 7.4-.75.75-1.4 1.55l-.4.5.3-.15q-2.2 4.45-2.5 5.75-.35 1.3-.55 1.7.35-.25.95-.65 1.75-1.05 2.5-1.05 1.05 0 1.25 1.3-2.45 6.75-3.25 9.75l.8-.9q2.3-2.25 3.4-2.95.55-.35 1.7-1.25-.45.95-2.1 4.75-1.65 3.8-3.55 6.25-1.95 2.4-3 3.95-1.1 1.55 3.2-2.4 4.3-3.95 5-4.5.1-.1 1.25-1.4.5-.5.85-.8.6-.5.95-.5l.05.15-1.55 2.4q-1.75 3.6-2.95 6-1.1 4.7-12.35 20.35-2.6 4.6-3.4 6.55Q6.9 85.4 10 82.4q8.35-8.45 13.45-13.3 5-4.9 4.75-4.35l-.1.2q.1-.15.2-.35.65-.35 1.45-.95.35-.25.7-.55l.2-.05q0 .25.05.55.05.7.15 1.6v1.3l-.4 2.5-1.7 6.25q-1.85 5.3-2 5.95-.1.25-.25.9.25-.15.55-.45 1.5-1.65 4.05-7.6 2.95-7.4 4.8-11.6.2-.85.6-1.9.4-1.1.75-1.75.35-.7.7-1.2.35-.55.6-.8v-.05h.1q2.45-13.2 7.75-22.45.15-.3.35-.6.1-.15.2-.35l-.1.1q.55-.85 1.25-1.75-1.25.85-1.9 1.6-.75.85-3.65 3.4L41 38.05q.675-.544 1.55-1.2-.45.35-.8.75-1.3 1.1-2.35 2.05.2-.65.5-1.3.3-2.05 2.8-8.25 1.55-3.75 2.9-5.75-9.5 3.85-14.75 14.15-.05 0-.05.05l-.5.7-.25.1v-.1-.2q0-.35.05-.8 0-.15.05-.35.45-1.15.95-2.8 2-6.75 4.5-10.5 1.9-3 5.85-7.65 1-1.15 1.65-2 .6-.85.9-1.4m-.1 22.2q-.3.2-.55.4l.6-.5-.05.1m-24.55 2.3h-.05l.05-.1v.1M29.3 26.9q0-.05.1-.1v.1h-.1M41 4.65q1.45-.85 6-4.25l-1.2.95q.3-.2 1.65-1.3V0Q42.263 1.567 37.4 3.75l-1.35.65Q26.95 8.65 19 15.1q-6.5 5.55-11.25 12.1-3.7 5.2-6.7 10.05-.55.8-1.05 1.9.25-.45.55-.85.4-.45.85-.85Q5.65 33.4 8.25 32q1.7-1.05 4.65-2.2 1-.65 1.6-.85-1.3 1.6-2.55 3Q10.65 33.3 9 36.1q-1.65 2.8-2.05 4.1.1-.1.25-.2.1-.1.25-.2 1.25-.9 1.7-1.2 1.4-.85 2.8-1.35.55-.25 1.45-.6.2.05.5.05l.3-.4q1.3-1.7 3.15-3.8Q25.4 23 29.7 19.65h.05v-.05l.1-.1q.15-.25.2-.4l.1-.05.05-.05q4.35-6.05 12.65-10.45l-1.75.3-5.8 2.2q-1.85.5-4.8 1.85-2.5 1.15-4.2 2.1-.3.15-.55.35h-.05q-.2.1-.35.25l.2-.4.1-.05v-.05q.05-.15.35-.4.1-.05.15-.1.9-.75 2.3-1.95l5.1-3.35Q39.5 5.45 41 4.65M74.95 18.7h-1.4q-1.5.35-2.35.6-.15 0-.3.05-.1 0-.2.05-.15.1-.3.15Q52.6 26 47.75 37.45q-2.3 4.2-4.7 10.4-.5 2.15-.9 4.5-.25 1.15-.5 2.5-.1.6-.25 1.25l6.8-5.8-2.45 6.6.25-1q-.1.2-.15.45-.55 1.85-2.1 6.95 0 .1-.65 2.05-.45 1.35-.55 2.3-.2 1-.5 3.45V72.55q.3-.55.65-1.35l5.25-8.6q.8-1.3 3.85-6.45 1.3-2.3 1.95-3.5.25-.3.3-.45 2.45-4.05 7.45-7.65.45-.5 1.2-1 .95-.8 2.35-1.7.15-.2.35-.25.25-.25.45-.4.65-.5 1.25-.9 1.1-.9 3.1-2.2.15-.15.3-.2 2.45-1.65 3.55-2.45.15-.15.45-.35.7-.65 2.2-1.75v-.05h-.1q-2.35.65-2.55.7-2.95 1.1-5 2.1-.45.2-.75.35-.9.35-1.8.8-.9.4-1.85.85-.95.45-2.35 1.4-1.4.95-1.95 1.2.45-.35.85-1.05 0-.15.1-.25.2-.25.45-.55.2-.25.2-.1 1-1.25 2.3-3.5 1.25-2.3 3.15-5-5.8 1.55-11.45 4.45l-.6.3q-.25.1-.4.15.35-.3.75-.65 7.55-10.6 18.8-15.55.2-.15.45-.25m56.4 27.85q-.05-.15-.1-.25l-.2.1-5.85-4.4 2.35 6.5q.15.6.3 1.55.15.5.2 1.05-2.85-2.7-4.1-3.1-1.3-.4-1.4-.35 2.05 2.9 4 5.9 1.05 1.35 1.55 2.3.1.25.4.9 8.15 13.65 13.65 29.9v-.8q0-.2-.4-1.8-.2-1-.65-2.55-.2-.95-.5-2-1.2-4.55-1.7-6.7 1.45 1.5 1.75 1.65 1.6 1 2.75 1.85.05.05.15.1.05 0 .15.05v-.05q-.1-.3-.1-.5-.15-.5-.25-.95h.05q-.35-1.15-.65-2.2-2.65-10.35-8.5-20.35-.1-.1-.15-.2-.05-.1-.05-.25-.35-.95-.9-2.05l-.15-.3q-.05-.2-.15-.35-.1-.15-.15-.25l-.6-1.15q-.45-.7-.75-1.3m-.05-9.45q-.2-.3-6.55-4.75l5.7 8.1q.95 1.4 1.75 4.15.05.1.15.25.05.1.15.25.55.85.95 1.55 6.95 11.2 11.25 25.1.05.15.15.4.05.25.15.65.05.05.05.25.048.048.05.1V73l-.45-4.1q.05-.25 0-1.75-.1-1.5-.2-2.45-.1-.95-.25-2.2 1.4 1.95 2.3 3.4 1.4 2.35 2.85 4.7-.35-2.75-.9-7.35h.1q-.05-.15-.15-.25l.05-.05q-.95-1.85-1.7-4.1-1.05-3.55-2-5.25-1.55-4.05-2.35-8.35 0-.35-.45-2.45-.3-1.45-.2-1.75-.15-.1-.35-.4-1.75-2-5.7-7.1-.85-1.15-4.6-5.85 3.45 4.65 4.1 13.95-3.65-4.35-3.9-4.55m14.5-19.05v.1q-.1-.1-.15-.2l.7 1.95q.2 1.45.4 3.55l-.1.1Q140.3 17.3 136 13l3.4 6.5q.75 2.1 2.8 7.5.8 2.3 1.4 4.35 0 .1.1.2 0 .05.05.05v-.05q.4 1.45 2.8 5.05 3 4.55 5.5 7.7.35.55 1.35 1.55.55.65 1.4 1.6l.05.05q.1.1.2.25l.05-.05q1.55.9 3.65 2.25l1.65 1.1v-.25q-1.9-2.6-3.35-6-1.45-3.4-1.1-3.4.3 0 1.3.75.95.7 2.7 1.1 1.75.35 2.15.55-.2-.55-.45-1.05-.15-.35-.3-.65-.65-1.6-.95-2.1-.3-.6-.9-1.9-.35-.8-.8-1.85-.05-.15-.05-.25v-.05q-.45-.45-.8-.85l-.05-.05v-.1Q155.25 32 152.5 28q-3.15-4.9-5.25-7.85-.2-.3-.4-.55-.55-.8-1.05-1.55M162.6 69q2.3 1.45 5.4 3.15-.2-.55-8.55-10.95l-1.85-3.1q-1.7-2.6-3.45-6.4-.1-.25-.5-1.15-.4-.8-.9-2.1v-.05l-.1-.1q-3.15-4.2-4.95-6.65-1.75-2.4-2.8-4.4-.3-.55-.5-1.05-1.4-.4-6.5-7.45l4.45 11.1q.3.3 0 1.1-.15.15-.25.2l.1.2q.35.65 1 2.7.8 2.8 1.55 5.35.5 1.8 1.05 2.95.45 1 2.2 5.55 1.5 3.6 2.5 5.7 1.2 2.3 3.2 5 .05.1.15.2 0 .05.05.1t.15.1q-.05-.1-.15-.55-.05-.45-.1-2.6-.15-2.15-.15-5.3 6.55 6.95 8.95 8.45m2.3-39.4q.25.2.5.5 1.85 1.95 4.95 4.55.8.8 3.55 2.45.8.5 1.55.85.7.4 1.4.75h.05q-.8-1.6-1.45-2.8-5.25-8.8-11.1-15.1-6.25-6.7-13.2-10.6-4.75-2.45-9.5-3.95 4.15 2.7 5.2 7.4.1.25.25.5l.1.3q.15.3.3.65l-.1-.2q4.3 11.45 10.65 18.65v-.05q.2.1.5.3 1.25.7 1.7 1.2l.05.05q.35.35.85.65 6.05 4.5 9.8 4.4-4.85-4.35-6.05-10.5z" id="HaiMed025__Symbol_26_0_Layer0_0_FILL"/></defs><use xlink:href="#HaiMed025__Symbol_81_0_Layer0_0_FILL" xmlns:xlink="http://www.w3.org/1999/xlink" transform="translate(78.3 45.6)" id="HaiMed025__col1n"/><use xlink:href="#HaiMed025__Symbol_50_0_Layer0_0_FILL" xmlns:xlink="http://www.w3.org/1999/xlink" transform="translate(78.3 47.5)" id="HaiMed025__col1d"/><use xlink:href="#HaiMed025__Symbol_26_0_Layer0_0_FILL" xmlns:xlink="http://www.w3.org/1999/xlink" transform="translate(104.65 55.05)" id="HaiMed025__col1l"/></g></g><g transform=""><g transform=""><defs><path fill="#000000" d="M18.3 32.35q-2.15-2.15-2.15-5.15-2.45-.5-3.5 1.5 2.4.5 4.2 2.8 2.1 2.65 2.4 6.25v1q0 3.3-1.45 5.85.2.35.4.75.05.15.15.3 5.55 10.3 7.9 11.8 1.1.7 1.4-.6l.1.15q.6-2.25-2.45-11.65-.35-1.15-.8-2.4-.7-2.2-1.4-4.35l-1.9-4.4q-1.6-.55-2.9-1.85M6.3.9Q5.65.7 5.55.75h-.1q-.2-.2-.6-.4Q4.1 0 3.3 0 1 0 1 2.05q0 .2-.15.4Q.7 2.6.5 3.4q-.2.65-.2.9H.25l.05.05v.25q-.05.05-.05-.05-.25.3-.25.8Q0 6.9 1.1 6.9h.25l8.2 19.2h.05l.15.3q3.85 0 6.8-2.95L7.2 1.85q0-.05-.05-.2-.1-.05-.15-.1V1.5q-.3-.3-.6-.5-.05-.05-.15-.1h.05z" id="ObjMor014__Symbol_124_0_Layer0_0_FILL"/><path fill="#999999" d="M18.45 28.9l-.25-.55-6.8 2.95.9 2.2q.25-.05.5-.05.75 0 1.5.15l3.5-1.5V32q0-1.7.65-3.1M.45 9.8q-.2.1-.25.25-.05.2 0 .4 3.35 11.35 9.05 21.2.05.2.25.25.2.1.4 0 .15-.05.2-.25 0-.05.05-.1.05-.1 0-.25-.1-.15-.15-.35-4.65-12.35-7.85-18.8.35-.05.9-.25l-.8-1.8h.05l-.4-.9-1.45.6M0 1.95q.05.05 0 .1l2.4 5.7q1.5-2.65 4.8-2.1L4.85.1q-.65-.15-.8-.1Q1.9.05.25 1.65q-.15.05-.25.3z" id="ObjMor014__Symbol_28_0_Layer0_0_FILL"/><path fill="#666" d="M136 321.7l-.1-.15-1.4.6h-.05l1.6 3.7q.05.15.4.25.25.05.55-.05.3-.15.45-.4.1-.25.05-.4l-1.5-3.55z" id="ObjMor014__Layer4_0_FILL"/></defs><use xlink:href="#ObjMor014__Symbol_124_0_Layer0_0_FILL" xmlns:xlink="http://www.w3.org/1999/xlink" transform="translate(108.25 264.7)" id="ObjMor014__col1n"/><use xlink:href="#ObjMor014__Symbol_28_0_Layer0_0_FILL" xmlns:xlink="http://www.w3.org/1999/xlink" transform="translate(106.6 259.8)" id="ObjMor014__col2n"/><use xlink:href="#ObjMor014__Layer4_0_FILL" xmlns:xlink="http://www.w3.org/1999/xlink"/></g></g><g transform="translate(102 -319)"><g transform=""><defs><path fill="#FFC400" d="M42.3 47.25q3.65 1.5 7.15 0 1.15-.55 1.45-.65.15-.05.4-.15.1-.05.25-.05.25-.05.45-.1 2.2-.5 4.15.7l.2.1q4.6 2.85 2.45-2.15h-.1q-.25-.45-.55-.9-.35-.55-.75-1.05-.9-1.2-2-2.15Q38.5 30.1 21.25 32.8v-.05q-3.5-1.6-3.15-8 0-.2.05-.3-.05-.05 0-.1-.05-.05 0-.1v-.3q.6-.8 1-1.55.1-.35.2-.65.55-1.15.55-2.45 0-2.55-2-4.35.15-3.25 3.25-4.35 1.6-.25 2.75-1.5 1.35-1.65 1.35-3.8 0-2.2-1.35-3.75Q22.5 0 20.4 0 18.45 0 17 1.55 15.6 3.1 15.6 5.3q0 2 1.2 3.6 1.1 3.4-1.9 4.3-1.05-.25-2.2-.25-1.15 0-2.2.25-3.1-.85-2.05-4.3 1.2-1.6 1.2-3.6 0-2.2-1.4-3.75Q6.85 0 4.85 0 2.8 0 1.4 1.55 0 3.1 0 5.3q0 2.15 1.4 3.8 1.15 1.25 2.75 1.5 3.1 1.15 3.25 4.4-1.9 1.8-1.9 4.3 0 1.7.85 3.1.4.8 1.05 1.65.45.55.8 1.2.05.1.05.2.45 1.1.45 2.45v.4h-.05v.55q-.05.05-.05.2h.05q-.05.2-.05.4-.15 1.1-.6 2.65-1.7 12.2 7.55 15.25 3.15 1 5.3 0l.2-.1q1.25-.55 1.5-.65.05-.05.35-.15.15-.05.3-.05h.05l.2-.05q2.25-.55 4.4.65.25.2.55.35 3.2 1.35 6.65 0l.2-.1q1.25-.55 1.45-.65l.45-.15q.15-.05.25-.05h.15q.1-.05.25-.1 1.8-.4 3.35.3.2.05.5.2.3.25.65.45m-1.45-1.45q.05 0 .05.05h-.05v-.05m-15.05 0v.05h-.05l.05-.05z" id="PetPet029__Symbol_101_0_Layer0_0_FILL"/><path fill="#00498A" d="M39.45 7.8q-.5-.8-1.05-1.5-2.95-3.15-6.75-4.7Q27.5-.15 23.35 0 7.9-.05 2.25 13.75q-1 2.3-1.6 5-.25 1.1-.4 2.35-.05.15-.05.35-.15.65-.2 1.4 0 .75.1 1.35 0 .05.05.15.05.55.2 1.05 1.35 4.8 8.35 4.9 1.85-.15 2.65-.2.65-.05.8-.05l.05.05q.6.05 1.35.25 1.95 2.1 4.5 3.15 1.35.55 2.75.75 0-.05.05 0v.05q.05.05.15.05 3.25.35 5.9.1 3.2-.25 5.6-1.3l.7-.35q.45-.2 1.05-.5 1.65-1.15 4.15-3.8 1.25-1.3 2.05-2.9 1.1-2.15 1.6-4.2 1.35-7.7-2.6-13.6z" id="PetPet029__Symbol_102_0_Layer0_0_FILL"/><path fill="#006AC9" d="M33.1 9.3q.2.1.4.3 5.55 5.7 2.15 14.2-.95 1.75-2.65 3.3-2.25 2-5.35 2.9-7.3 1.5-11.95-2.5-4.75-4.9-1.95-10.9 2.6-4.35 7.9-4.65 1.3 0 2.75.3 3.55.8 4.65 4.35.1.45.1 1.05v.5q-.35 1.5-1.7 1.5-.4-.2-.75-.2l-.2-.2h-.05v-.1-.25q-.05-.55-.5-1.15-.55-.95-1.25-.95-.15 0-.25.05-.4-.1-.75-.1-2.45-.1-3.95 1.15-2.2 2.4-1.15 5 1.25 2.9 5.35 3.25H24q3.6 0 5.9-1.9h-.05q.45-.35.85-.8 2.75-3.8 1.55-7.95-.8-2.1-2.5-3.65-1.6-1.35-3.6-2-4.05-.8-7-.3-5.65 1.05-8.45 5.95l-.1.4q-.95 2.45-1.1 4.4-.3 3.3.9 6.1.6 1.45 1.55 2.8.2.3.45.6.3.25.55.55 1.95 2.1 4.5 3.15 1.35.55 2.75.75 0-.05.05 0v.05q.05.05.15.05 3.25.35 5.9.1 3.2-.25 5.6-1.3l.7-.35q.45-.2 1.05-.5 1.65-1.15 4.15-3.8 1.25-1.3 2.05-2.9 1.1-2.15 1.6-4.2 1.35-7.7-2.6-13.6-.5-.8-1.05-1.5-2.95-3.15-6.75-4.7Q26.9-.15 22.75 0 7.3-.05 1.65 13.75q-1 2.3-1.6 5L0 19.85Q0 21 1 21.9q1 .9 2.25.9 1.5 0 2.25-2.15.05-.1.05-.2.3-2.05.7-3.65.1-.5.25-1 2.05-7.65 9.05-9.85h.05q9.6-3.1 16.35 2.3l.55.45q.25.3.6.6M22.45 23.4h-.15q.05-.05.1-.05 0 .048.05.05z" id="PetPet029__Symbol_103_0_Layer0_0_FILL"/><path fill="#000D19" d="M21.95 2.9v.05q-1.1-1-2.45-1.7-.65-.3-1.4-.5-7-2.1-13.1 1.85-.6.45-1.15.9-1.8 1.7-2.8 4.35-.8 1.85-1 4.05-.4 4.95 2.4 8.9.35.5.75.95l.05.05q.6.05 1.35.25-.25-.3-.55-.55-.25-.3-.45-.6-.95-1.35-1.55-2.8-1.2-2.8-.9-6.1.15-1.95 1.1-4.4l.1-.4q2.8-4.9 8.45-5.95 2.95-.5 7 .3 2 .65 3.6 2 1.7 1.55 2.5 3.65 1.2 4.15-1.55 7.95-.4.45-.85.8h.05q-2.3 1.9-5.9 1.9h-.05q-4.1-.35-5.35-3.25-1.05-2.6 1.15-5 1.5-1.25 3.95-1.15.35 0 .75.1.1-.05.25-.05.7 0 1.25.95.45.6.5 1.15v.35h.05q.1-.05.15-.1.1-.1.1-.3 0-2.85-3-2.95-2.9-.1-4.55 1.35l-.5.5q-2.2 2.65-1 5.5 1.3 3.25 6 3.75h.3q.65 0 1.25-.05 3.05-.3 5.15-2 .6-.55 1.05-1.05 3.05-3.65 1.75-8.3-.75-2.6-2.9-4.4z" id="PetPet029__Symbol_104_0_Layer0_0_FILL"/><path fill="#FFF" d="M78.2 332.6q-1-1.1-2.5-1.1-1.45 0-2.5 1.1-1 1.1-1 2.7 0 1.55 1 2.7 1.05 1.1 2.5 1.1 1.5 0 2.5-1.1 1-1.15 1-2.7 0-1.6-1-2.7m-21.95 2.7q0 1.55 1 2.7 1.05 1.1 2.5 1.1t2.5-1.1q1.05-1.15 1.05-2.7 0-1.6-1.05-2.7t-2.5-1.1q-1.45 0-2.5 1.1-1 1.1-1 2.7z" id="PetPet029__Layer1_0_FILL"/><path d="M71.4 355.4q.45-.5.75-1.1-1 .75-2.2 1.05-.85.25-1.85.25h-.3q-1.8 0-3.25-.6.4.45 1.1.9 1.15.7 2.95.6 1.8-.1 2.8-1.1m4.85-18.1q.05-.2.05-.35 0-.5-.3-.85-.35-.3-.8-.3-.35 0-.6.15-.1.05-.2.15-.3.35-.3.85 0 .45.3.75.3.35.8.35.45 0 .8-.35.15-.15.25-.4m-16.75-1.2q-.3.35-.3.85 0 .15.05.35.1.25.25.4.3.35.8.35t.75-.35q.35-.3.35-.75 0-.5-.35-.85l-.15-.15q-.25-.15-.6-.15-.5 0-.8.3z" id="PetPet029__Layer1_0_MEMBER_0_FILL"/></defs><use xlink:href="#PetPet029__Symbol_101_0_Layer0_0_FILL" xmlns:xlink="http://www.w3.org/1999/xlink" transform="translate(55.1 329.9)" id="PetPet029__col1n"/><use xlink:href="#PetPet029__Symbol_102_0_Layer0_0_FILL" xmlns:xlink="http://www.w3.org/1999/xlink" transform="translate(76.25 338.45)" id="PetPet029__col2n"/><use xlink:href="#PetPet029__Symbol_103_0_Layer0_0_FILL" xmlns:xlink="http://www.w3.org/1999/xlink" transform="translate(76.85 338.45)" id="PetPet029__col2l"/><use xlink:href="#PetPet029__Symbol_104_0_Layer0_0_FILL" xmlns:xlink="http://www.w3.org/1999/xlink" transform="translate(85.2 346.75)" id="PetPet029__col2s"/><use xlink:href="#PetPet029__Layer1_0_FILL" xmlns:xlink="http://www.w3.org/1999/xlink"/><use xlink:href="#PetPet029__Layer1_0_MEMBER_0_FILL" xmlns:xlink="http://www.w3.org/1999/xlink"/></g></g></svg>